# xmcd
#
# Track frame offsets:
#	150
#	19924
#	41971
#	58090
#	83761
#	100041
#	133791
#	154852
#	174786
#	206885
#	227561
#	244342
#	269059
#	291977
#	311468
#	327349
#
# Disc length: 4672 seconds
# Revision: 0
# Processed by: cddbd v1.5.2PL0 Copyright (c) Steve Scherf et al.
# Submitted via: dBpowerAMP V12.0
#
DISCID=ea123e10
DTITLE=Various Artist - Black Radio 2
DYEAR=2013
DGENRE=Jazz
TTITLE0=Robert Glasper Experiment - Baby Tonight [Black Radio 2 Theme/Mic Check 2]
TTITLE1=Robert Glasper Experiment feat. Patrick Stump and Common - I Stand Alone
TTITLE2=Robert Glasper Experiment feat. Brandy - What Are We Doing
TTITLE3=Robert Glasper Experiment feat. Jill Scott - Calls
TTITLE4=Robert Glasper Experiment feat. Dwele - Worries
TTITLE5=Robert Glasper Experiment feat. Marsha Ambrosius - Trust
TTITLE6=Robert Glasper Experiment feat. Anthony Hamilton - Yet To Find
TTITLE7=Robert Glasper Experiment feat. Faith Evans - You Own Me
TTITLE8=Robert Glasper Experiment feat. Norah Jones - Let It Ride
TTITLE9=Robert Glasper Experiment feat. Luke James, Lupe Fiasco and Snoop Dogg - Persevere
TTITLE10=Robert Glasper Experiment feat. Emeli Sandé - Somebody Else
TTITLE11=Robert Glasper Experiment feat. Malcolm Jamal Warner and Lalah Hathaway - Jesus Children
TTITLE12=Robert Glasper Experiment feat. Eric Roberson - Big Girl Body
TTITLE13=Robert Glasper Experiment feat. Jazmine Sullivan and Bilal - You're My Everything
TTITLE14=Robert Glasper Experiment feat. Jan Grae and Macy Gray - I Don't Even Care
TTITLE15=Robert Glasper Experiment - Lovely Day
EXTD=
EXTT0=
EXTT1=
EXTT2=
EXTT3=
EXTT4=
EXTT5=
EXTT6=
EXTT7=
EXTT8=
EXTT9=
EXTT10=
EXTT11=
EXTT12=
EXTT13=
EXTT14=
EXTT15=
PLAYORDER=
